<svg xmlns="http://www.w3.org/2000/svg" xmlns:xlink="http://www.w3.org/1999/xlink" viewBox="0 0 1218 244" width="1218" height="244" role="img" aria-label="BPMN swimlane diagram of 04.5 Track &amp; approve time: 2 lanes, 3 steps"><title>04.5 Track &amp; approve time</title><style>
svg{font-family:"IBM Plex Sans",-apple-system,"Segoe UI",Helvetica,Arial,sans-serif;color:#1E2422}
.lane0{fill:#FFFFFF}.lane1{fill:#EBEDE8}.ground{fill:#F3F4F1}.gw{fill:#FAF0DC}.env{fill:#FFFFFF}
@media (prefers-color-scheme: dark){svg{color:#E8EAE6}.lane0{fill:#202423}.lane1{fill:#2A2F2D}.ground{fill:#181B1A}.gw{fill:#3A2F17}.env{fill:#202423}}
</style><defs><marker id="arrow" viewBox="0 0 10 10" refX="9" refY="5" markerWidth="8" markerHeight="8" orient="auto-start-reverse"><path d="M0 0L10 5L0 10z" fill="currentColor"/></marker></defs><g><rect x="0" y="0" width="1218" height="122" class="lane0" stroke="currentColor" stroke-opacity=".35"/><rect x="0" y="0" width="6" height="122" fill="#5B6E1F"/><text x="78.0" y="54.0" text-anchor="middle" font-size="12" font-weight="600" fill="currentColor"><tspan x="78.0" dy="0">Resource</tspan><tspan x="78.0" dy="14">Management</tspan></text><line x1="150" y1="0" x2="150" y2="122" stroke="currentColor" stroke-opacity=".35"/></g><g><rect x="0" y="122" width="1218" height="122" class="lane1" stroke="currentColor" stroke-opacity=".35"/><rect x="0" y="122" width="6" height="122" fill="#3A6EA5"/><text x="78.0" y="176.0" text-anchor="middle" font-size="12" font-weight="600" fill="currentColor"><tspan x="78.0" dy="0">Finance (IT</tspan><tspan x="78.0" dy="14">Planning)</tspan></text><line x1="150" y1="122" x2="150" y2="244" stroke="currentColor" stroke-opacity=".35"/></g><path d="M277 61L386 61" fill="none" stroke="currentColor" stroke-width="1.5" marker-end="url(#arrow)"/><path d="M548 61L594 61" fill="none" stroke="currentColor" stroke-width="1.5" marker-end="url(#arrow)"/><path d="M756 61L779 61L779 183L802 183" fill="none" stroke="currentColor" stroke-width="1.5" marker-end="url(#arrow)"/><path d="M964 183L1073 183" fill="none" stroke="currentColor" stroke-width="1.5" marker-end="url(#arrow)"/><g class="bn"><title> (Start event)</title><circle cx="259.0" cy="61.0" r="18" class="ground" stroke="currentColor" stroke-width="1.5"/><text x="259.0" y="92.0" text-anchor="middle" font-size="10.5" fill="currentColor"></text></g><g class="bn"><title>04.5.1 · Capture effort against work (User task) — Outcome: time entries / effort data — 5 approaches on record</title><rect x="386.0" y="24.0" width="162" height="74" rx="8" class="ground" stroke="currentColor" stroke-width="1.5"/><g transform="translate(394.0,31.0)" stroke="currentColor" fill="none" stroke-width="1.4"><circle cx="6" cy="4" r="3"/><path d="M0 13c0-4 12-4 12 0"/></g><text x="541.0" y="92.0" text-anchor="end" font-size="8.5" fill="#1F5F4A" font-family="monospace">5 approaches</text><text x="541.0" y="37.0" text-anchor="end" font-size="9.5" fill="currentColor" fill-opacity=".6" font-family="monospace">04.5.1</text><text x="467.0" y="67.5" text-anchor="middle" font-size="10.5" fill="currentColor"><tspan x="467.0" dy="0">Capture effort against</tspan><tspan x="467.0" dy="13">work</tspan></text></g><g class="bn"><title>04.5.2 · Approve timesheets (User task) — Outcome: approved time — Only when Labor effort signal: Timesheets (hours x rate) — 1 approaches on record</title><rect x="594.0" y="24.0" width="162" height="74" rx="8" class="ground" stroke="currentColor" stroke-width="1.5" stroke-dasharray="6 3"/><g transform="translate(602.0,31.0)" stroke="currentColor" fill="none" stroke-width="1.4"><circle cx="6" cy="4" r="3"/><path d="M0 13c0-4 12-4 12 0"/></g><text x="749.0" y="92.0" text-anchor="end" font-size="8.5" fill="#1F5F4A" font-family="monospace">1 approaches</text><text x="749.0" y="37.0" text-anchor="end" font-size="9.5" fill="currentColor" fill-opacity=".6" font-family="monospace">04.5.2</text><text x="675.0" y="74.0" text-anchor="middle" font-size="10.5" fill="currentColor"><tspan x="675.0" dy="0">Approve timesheets</tspan></text></g><g class="bn"><title>04.5.3 · Feed time/effort to finance processes (Send task (ADM)) — Outcome: effort data for costing &amp; CapEx — 5 approaches on record</title><rect x="802.0" y="146.0" width="162" height="74" rx="8" class="ground" stroke="currentColor" stroke-width="1.5"/><rect x="805.0" y="149.0" width="162" height="74" rx="8" fill="none" stroke="currentColor" stroke-width="1" stroke-dasharray="3 3" opacity=".5"/><g transform="translate(810.0,153.0)"><rect width="13" height="9" rx="1" fill="currentColor"/><path d="M0.5 1l6 4.5 6-4.5" class="env" stroke="#fff" stroke-width="1.2" fill="none"/></g><text x="957.0" y="214.0" text-anchor="end" font-size="8.5" fill="#1F5F4A" font-family="monospace">5 approaches</text><text x="957.0" y="159.0" text-anchor="end" font-size="9.5" fill="currentColor" fill-opacity=".6" font-family="monospace">04.5.3 · ADM</text><text x="883.0" y="189.5" text-anchor="middle" font-size="10.5" fill="currentColor"><tspan x="883.0" dy="0">Feed time/effort to</tspan><tspan x="883.0" dy="13">finance processes</tspan></text></g><g class="bn"><title> (End event)</title><circle cx="1091.0" cy="183.0" r="18" class="ground" stroke="currentColor" stroke-width="3"/><text x="1091.0" y="214.0" text-anchor="middle" font-size="10.5" fill="currentColor"></text></g></svg>