<svg xmlns="http://www.w3.org/2000/svg" width="1430" height="132" viewBox="0 0 1430 132" font-family="system-ui,-apple-system,'Segoe UI',sans-serif" font-size="11" style="color:#0b0b0b"><rect x="0" y="14" width="1420" height="96" fill="#e1e0d9" opacity="0.28" rx="8"></rect><line x1="140" y1="14" x2="140" y2="110" stroke="#c3c2b7"></line><text x="12" y="58" fill="#0b0b0b" font-weight="600">ATP Admin</text><circle cx="158" cy="62" r="13" fill="#fcfcfb" stroke="#c3c2b7" stroke-width="1.5"></circle><path d="M171,62 L177.5,62 L177.5,62 L178,62" fill="none" stroke="#52514e" stroke-width="1.6"></path><path d="M177,58 L184,62 L177,66 Z" fill="#52514e"></path><path d="M376,62 L396,62 L396,62 L410,62" fill="none" stroke="#52514e" stroke-width="1.6"></path><path d="M409,58 L416,62 L409,66 Z" fill="#52514e"></path><path d="M608,62 L628,62 L628,62 L642,62" fill="none" stroke="#52514e" stroke-width="1.6"></path><path d="M641,58 L648,62 L641,66 Z" fill="#52514e"></path><path d="M840,62 L860,62 L860,62 L874,62" fill="none" stroke="#52514e" stroke-width="1.6"></path><path d="M873,58 L880,62 L873,66 Z" fill="#52514e"></path><path d="M1072,62 L1092,62 L1092,62 L1106,62" fill="none" stroke="#52514e" stroke-width="1.6"></path><path d="M1105,58 L1112,62 L1105,66 Z" fill="#52514e"></path><circle cx="1334" cy="62" r="13" fill="#fcfcfb" stroke="#0b0b0b" stroke-width="3"></circle><path d="M1304,62 L1312.5,62 L1312.5,62 L1315,62" fill="none" stroke="#52514e" stroke-width="1.6"></path><path d="M1314,58 L1321,62 L1314,66 Z" fill="#52514e"></path><g class="l2node" data-id="10.1.1"><rect x="184" y="33" width="192" height="58" rx="8" fill="#fcfcfb" stroke="#c3c2b7" stroke-width="1.5"></rect>
      <rect x="184" y="33" width="4" height="58" rx="2" fill="#2a78d6"></rect><text x="196" y="50" fill="#0b0b0b">Design org, portfolio &amp; team</text><text x="196" y="63" fill="#0b0b0b">structure</text></g><text x="186" y="29" fill="#52514e" font-size="10">10.1.1 · Any</text><g class="l2node" data-id="10.1.2"><rect x="416" y="33" width="192" height="58" rx="8" fill="#fcfcfb" stroke="#c3c2b7" stroke-width="1.5"></rect>
      <rect x="416" y="33" width="4" height="58" rx="2" fill="#2a78d6"></rect><text x="428" y="50" fill="#0b0b0b">Configure processes,</text><text x="428" y="63" fill="#0b0b0b">workflows &amp; fields</text></g><text x="418" y="29" fill="#52514e" font-size="10">10.1.2 · Any</text><g class="l2node" data-id="10.1.3"><rect x="648" y="33" width="192" height="58" rx="8" fill="#fcfcfb" stroke="#c3c2b7" stroke-width="1.5"></rect>
      <rect x="648" y="33" width="4" height="58" rx="2" fill="#2a78d6"></rect><text x="660" y="50" fill="#0b0b0b">Install &amp; tailor Solution</text><text x="660" y="63" fill="#0b0b0b">Library packages</text></g><text x="650" y="29" fill="#52514e" font-size="10">10.1.3 · Any</text><g class="l2node" data-id="10.1.4"><rect x="880" y="33" width="192" height="58" rx="8" fill="#fcfcfb" stroke="#c3c2b7" stroke-width="1.5"></rect>
      <rect x="880" y="33" width="4" height="58" rx="2" fill="#2a78d6"></rect><text x="892" y="50" fill="#0b0b0b">Build views, dashboards &amp;</text><text x="892" y="63" fill="#0b0b0b">automation</text></g><text x="882" y="29" fill="#52514e" font-size="10">10.1.4 · Any</text><g class="l2node" data-id="10.1.5"><rect x="1112" y="33" width="192" height="58" rx="8" fill="#fcfcfb" stroke="#c3c2b7" stroke-width="1.5"></rect>
      <rect x="1112" y="33" width="4" height="58" rx="2" fill="#2a78d6"></rect><text x="1124" y="50" fill="#0b0b0b">Manage integrations &amp;</text><text x="1124" y="63" fill="#0b0b0b">environments</text></g><text x="1114" y="29" fill="#52514e" font-size="10">10.1.5 · Any</text></svg>