<svg width="844" height="276" font-family="system-ui,-apple-system,'Segoe UI',sans-serif" font-size="11"><rect x="0" y="16" width="834" height="114" fill="#e1e0d9" opacity="0.28" rx="8"></rect><line x1="160" y1="16" x2="160" y2="130" stroke="#c3c2b7" stroke-width="1"></line><text x="12" y="65" fill="#0b0b0b" font-weight="600">Cloudability</text><rect x="0" y="138" width="834" height="114" fill="transparent" opacity="0" rx="8"></rect><line x1="160" y1="138" x2="160" y2="252" stroke="#c3c2b7" stroke-width="1"></line><text x="12" y="187" fill="#0b0b0b" font-weight="600">Costing -</text><text x="12" y="203" fill="#0b0b0b" font-weight="600">Apptio One / TBM Studio</text><path d="M362,75 L375,75 L375,75 L382,75" fill="none" stroke="#52514e" stroke-width="1.6"></path><path d="M381,71 L388,75 L381,79 Z" fill="#52514e"></path><path d="M580,75 L593,75 L593,197 L600,197" fill="none" stroke="#2a78d6" stroke-width="1.6" stroke-dasharray="5 4"></path><path d="M599,193 L606,197 L599,201 Z" fill="#2a78d6"></path><g class="fstep" data-i="0"><rect x="170" y="46" width="192" height="58" rx="7" fill="#fcfcfb" stroke="#c3c2b7" stroke-width="1.5"></rect><text x="179" y="61" fill="#0b0b0b">Allocate &amp; ATUM-map cloud</text><text x="179" y="73.5" fill="#0b0b0b">spend (towers, services)</text></g><text x="172" y="42" fill="#52514e" font-size="10">c1</text><g class="fstep" data-i="1"><rect x="388" y="46" width="192" height="58" rx="7" fill="#fcfcfb" stroke="#c3c2b7" stroke-width="1.5"></rect><text x="397" y="61" fill="#0b0b0b">Share cloud cost + capacity</text><text x="397" y="73.5" fill="#0b0b0b">data to Costing</text></g><text x="390" y="42" fill="#52514e" font-size="10">c2</text><g class="fstep" data-i="2"><rect x="606" y="168" width="192" height="58" rx="7" fill="#fcfcfb" stroke="#c3c2b7" stroke-width="1.5"></rect><text x="615" y="183" fill="#0b0b0b">Include cloud in App TCO, BU</text><text x="615" y="195.5" fill="#0b0b0b">consumption &amp; Bill of IT</text></g><text x="608" y="164" fill="#52514e" font-size="10">c3</text></svg>