<svg xmlns="http://www.w3.org/2000/svg" xmlns:xlink="http://www.w3.org/1999/xlink" viewBox="0 0 1218 366" width="1218" height="366" role="img" aria-label="BPMN swimlane diagram of Investment loop: 3 lanes, 3 steps"><title>Investment loop</title><style>
svg{font-family:"IBM Plex Sans",-apple-system,"Segoe UI",Helvetica,Arial,sans-serif;color:#1E2422}
.lane0{fill:#FFFFFF}.lane1{fill:#EBEDE8}.ground{fill:#F3F4F1}.gw{fill:#FAF0DC}.env{fill:#FFFFFF}
@media (prefers-color-scheme: dark){svg{color:#E8EAE6}.lane0{fill:#202423}.lane1{fill:#2A2F2D}.ground{fill:#181B1A}.gw{fill:#3A2F17}.env{fill:#202423}}
</style><defs><marker id="arrow" viewBox="0 0 10 10" refX="9" refY="5" markerWidth="8" markerHeight="8" orient="auto-start-reverse"><path d="M0 0L10 5L0 10z" fill="currentColor"/></marker></defs><g><rect x="0" y="0" width="1218" height="122" class="lane0" stroke="currentColor" stroke-opacity=".35"/><rect x="0" y="0" width="6" height="122" fill="#5B6E1F"/><text x="78.0" y="54.0" text-anchor="middle" font-size="12" font-weight="600" fill="currentColor"><tspan x="78.0" dy="0">Targetprocess /</tspan><tspan x="78.0" dy="14">ATP</tspan></text><line x1="150" y1="0" x2="150" y2="122" stroke="currentColor" stroke-opacity=".35"/></g><g><rect x="0" y="122" width="1218" height="122" class="lane1" stroke="currentColor" stroke-opacity=".35"/><rect x="0" y="122" width="6" height="122" fill="#3A6EA5"/><text x="78.0" y="176.0" text-anchor="middle" font-size="12" font-weight="600" fill="currentColor"><tspan x="78.0" dy="0">Costing / TBM</tspan><tspan x="78.0" dy="14">Studio</tspan></text><line x1="150" y1="122" x2="150" y2="244" stroke="currentColor" stroke-opacity=".35"/></g><g><rect x="0" y="244" width="1218" height="122" class="lane0" stroke="currentColor" stroke-opacity=".35"/><rect x="0" y="244" width="6" height="122" fill="#8C5A2B"/><text x="78.0" y="298.0" text-anchor="middle" font-size="12" font-weight="600" fill="currentColor"><tspan x="78.0" dy="0">IT Planning</tspan><tspan x="78.0" dy="14">(Finance)</tspan></text><line x1="150" y1="244" x2="150" y2="366" stroke="currentColor" stroke-opacity=".35"/></g><path d="M277 61L386 61" fill="none" stroke="currentColor" stroke-width="1.5" marker-end="url(#arrow)"/><path d="M548 61L571 61L571 183L594 183" fill="none" stroke="currentColor" stroke-width="1.5" marker-end="url(#arrow)"/><path d="M756 183L779 183L779 305L802 305" fill="none" stroke="currentColor" stroke-width="1.5" marker-end="url(#arrow)"/><path d="M964 305L1073 305" fill="none" stroke="currentColor" stroke-width="1.5" marker-end="url(#arrow)"/><g class="bn"><title> (Start event)</title><circle cx="259.0" cy="61.0" r="18" class="ground" stroke="currentColor" stroke-width="1.5"/><text x="259.0" y="92.0" text-anchor="middle" font-size="10.5" fill="currentColor"></text></g><g class="bn"><title>i1 · Send investments, planned labor allocations, actual effort, budget-change requests to Costing/Planning (Send task)</title><rect x="386.0" y="24.0" width="162" height="74" rx="8" class="ground" stroke="currentColor" stroke-width="1.5"/><rect x="389.0" y="27.0" width="162" height="74" rx="8" fill="none" stroke="currentColor" stroke-width="1" stroke-dasharray="3 3" opacity=".5"/><g transform="translate(394.0,31.0)"><rect width="13" height="9" rx="1" fill="currentColor"/><path d="M0.5 1l6 4.5 6-4.5" class="env" stroke="#fff" stroke-width="1.2" fill="none"/></g><text x="541.0" y="37.0" text-anchor="end" font-size="9.5" fill="currentColor" fill-opacity=".6" font-family="monospace">i1</text><text x="467.0" y="61.0" text-anchor="middle" font-size="10.5" fill="currentColor"><tspan x="467.0" dy="0">Send investments, planned</tspan><tspan x="467.0" dy="13">labor allocations, actual</tspan><tspan x="467.0" dy="13">effort, budget-chan…</tspan></text></g><g class="bn"><title>i2 · Reconcile investment spend; update approved budgets (Task)</title><rect x="594.0" y="146.0" width="162" height="74" rx="8" class="ground" stroke="currentColor" stroke-width="1.5"/><text x="749.0" y="159.0" text-anchor="end" font-size="9.5" fill="currentColor" fill-opacity=".6" font-family="monospace">i2</text><text x="675.0" y="183.0" text-anchor="middle" font-size="10.5" fill="currentColor"><tspan x="675.0" dy="0">Reconcile investment</tspan><tspan x="675.0" dy="13">spend; update approved</tspan><tspan x="675.0" dy="13">budgets</tspan></text></g><g class="bn"><title>i3 · Send approved investment budgets &amp; budget changes to Targetprocess (Send task) — Budgets, Labor Data, Objectives, Financial Guidance down; Progress, Actuals, Key Results up</title><rect x="802.0" y="268.0" width="162" height="74" rx="8" class="ground" stroke="currentColor" stroke-width="1.5"/><rect x="805.0" y="271.0" width="162" height="74" rx="8" fill="none" stroke="currentColor" stroke-width="1" stroke-dasharray="3 3" opacity=".5"/><g transform="translate(810.0,275.0)"><rect width="13" height="9" rx="1" fill="currentColor"/><path d="M0.5 1l6 4.5 6-4.5" class="env" stroke="#fff" stroke-width="1.2" fill="none"/></g><text x="957.0" y="281.0" text-anchor="end" font-size="9.5" fill="currentColor" fill-opacity=".6" font-family="monospace">i3</text><text x="883.0" y="305.0" text-anchor="middle" font-size="10.5" fill="currentColor"><tspan x="883.0" dy="0">Send approved investment</tspan><tspan x="883.0" dy="13">budgets &amp; budget changes</tspan><tspan x="883.0" dy="13">to Targetprocess</tspan></text></g><g class="bn"><title> (End event)</title><circle cx="1091.0" cy="305.0" r="18" class="ground" stroke="currentColor" stroke-width="3"/><text x="1091.0" y="336.0" text-anchor="middle" font-size="10.5" fill="currentColor"></text></g></svg>