<svg xmlns="http://www.w3.org/2000/svg" xmlns:xlink="http://www.w3.org/1999/xlink" viewBox="0 0 1634 244" width="1634" height="244" role="img" aria-label="BPMN swimlane diagram of L0-04 Workforce &amp; Resource Management: 2 lanes, 5 steps"><title>L0-04 Workforce &amp; Resource Management</title><style>
svg{font-family:"IBM Plex Sans",-apple-system,"Segoe UI",Helvetica,Arial,sans-serif;color:#1E2422}
.lane0{fill:#FFFFFF}.lane1{fill:#EBEDE8}.ground{fill:#F3F4F1}.gw{fill:#FAF0DC}.env{fill:#FFFFFF}
@media (prefers-color-scheme: dark){svg{color:#E8EAE6}.lane0{fill:#202423}.lane1{fill:#2A2F2D}.ground{fill:#181B1A}.gw{fill:#3A2F17}.env{fill:#202423}}
</style><defs><marker id="arrow" viewBox="0 0 10 10" refX="9" refY="5" markerWidth="8" markerHeight="8" orient="auto-start-reverse"><path d="M0 0L10 5L0 10z" fill="currentColor"/></marker></defs><g><rect x="0" y="0" width="1634" height="122" class="lane0" stroke="currentColor" stroke-opacity=".35"/><rect x="0" y="0" width="6" height="122" fill="#5B6E1F"/><text x="78.0" y="54.0" text-anchor="middle" font-size="12" font-weight="600" fill="currentColor"><tspan x="78.0" dy="0">Resource</tspan><tspan x="78.0" dy="14">Management</tspan></text><line x1="150" y1="0" x2="150" y2="122" stroke="currentColor" stroke-opacity=".35"/></g><g><rect x="0" y="122" width="1634" height="122" class="lane1" stroke="currentColor" stroke-opacity=".35"/><rect x="0" y="122" width="6" height="122" fill="#3A6EA5"/><text x="78.0" y="176.0" text-anchor="middle" font-size="12" font-weight="600" fill="currentColor"><tspan x="78.0" dy="0">Portfolio</tspan><tspan x="78.0" dy="14">Management</tspan></text><line x1="150" y1="122" x2="150" y2="244" stroke="currentColor" stroke-opacity=".35"/></g><path d="M277 61L386 61" fill="none" stroke="currentColor" stroke-width="1.5" marker-end="url(#arrow)"/><path d="M548 61L594 61" fill="none" stroke="currentColor" stroke-width="1.5" marker-end="url(#arrow)"/><path d="M756 61L802 61" fill="none" stroke="currentColor" stroke-width="1.5" marker-end="url(#arrow)"/><path d="M964 61L987 61L987 183L1010 183" fill="none" stroke="currentColor" stroke-width="1.5" marker-end="url(#arrow)"/><path d="M1172 183L1195 183L1195 61L1218 61" fill="none" stroke="currentColor" stroke-width="1.5" marker-end="url(#arrow)"/><path d="M1380 61L1489 61" fill="none" stroke="currentColor" stroke-width="1.5" marker-end="url(#arrow)"/><g class="bn"><title> (Start event)</title><circle cx="259.0" cy="61.0" r="18" class="ground" stroke="currentColor" stroke-width="1.5"/><text x="259.0" y="92.0" text-anchor="middle" font-size="10.5" fill="currentColor"></text></g><a href="#/l0/04/04.1"><g class="bn"><title>04.1 · Maintain the workforce baseline (Sub-process) — 3 processes: 04.1.1, 04.1.2, 04.1.3</title><rect x="386.0" y="24.0" width="162" height="74" rx="8" class="ground" stroke="currentColor" stroke-width="2.2"/><rect x="461.0" y="84.0" width="12" height="12" fill="none" stroke="currentColor" stroke-width="1.2"/><path d="M464.0 90.0h6M467.0 87.0v6" stroke="currentColor" stroke-width="1.2"/><text x="541.0" y="37.0" text-anchor="end" font-size="9.5" fill="currentColor" fill-opacity=".6" font-family="monospace">04.1</text><text x="467.0" y="67.5" text-anchor="middle" font-size="10.5" fill="currentColor"><tspan x="467.0" dy="0">Maintain the workforce</tspan><tspan x="467.0" dy="13">baseline</tspan></text></g></a><a href="#/l0/04/04.2"><g class="bn"><title>04.2 · Plan capacity (Sub-process) — 3 processes: 04.2.1, 04.2.2, 04.2.3</title><rect x="594.0" y="24.0" width="162" height="74" rx="8" class="ground" stroke="currentColor" stroke-width="2.2"/><rect x="669.0" y="84.0" width="12" height="12" fill="none" stroke="currentColor" stroke-width="1.2"/><path d="M672.0 90.0h6M675.0 87.0v6" stroke="currentColor" stroke-width="1.2"/><text x="749.0" y="37.0" text-anchor="end" font-size="9.5" fill="currentColor" fill-opacity=".6" font-family="monospace">04.2</text><text x="675.0" y="74.0" text-anchor="middle" font-size="10.5" fill="currentColor"><tspan x="675.0" dy="0">Plan capacity</tspan></text></g></a><a href="#/l0/04/04.3"><g class="bn"><title>04.3 · Allocate resources &amp; track utilization (Sub-process) — 4 processes: 04.3.1, 04.3.2, 04.3.3, 04.3.4</title><rect x="802.0" y="24.0" width="162" height="74" rx="8" class="ground" stroke="currentColor" stroke-width="2.2"/><rect x="877.0" y="84.0" width="12" height="12" fill="none" stroke="currentColor" stroke-width="1.2"/><path d="M880.0 90.0h6M883.0 87.0v6" stroke="currentColor" stroke-width="1.2"/><text x="957.0" y="37.0" text-anchor="end" font-size="9.5" fill="currentColor" fill-opacity=".6" font-family="monospace">04.3</text><text x="883.0" y="67.5" text-anchor="middle" font-size="10.5" fill="currentColor"><tspan x="883.0" dy="0">Allocate resources &amp; track</tspan><tspan x="883.0" dy="13">utilization</tspan></text></g></a><a href="#/l0/04/04.4"><g class="bn"><title>04.4 · Manage positions (Sub-process) — 3 processes: 04.4.1, 04.4.2, 04.4.3</title><rect x="1010.0" y="146.0" width="162" height="74" rx="8" class="ground" stroke="currentColor" stroke-width="2.2"/><rect x="1085.0" y="206.0" width="12" height="12" fill="none" stroke="currentColor" stroke-width="1.2"/><path d="M1088.0 212.0h6M1091.0 209.0v6" stroke="currentColor" stroke-width="1.2"/><text x="1165.0" y="159.0" text-anchor="end" font-size="9.5" fill="currentColor" fill-opacity=".6" font-family="monospace">04.4</text><text x="1091.0" y="196.0" text-anchor="middle" font-size="10.5" fill="currentColor"><tspan x="1091.0" dy="0">Manage positions</tspan></text></g></a><a href="#/l0/04/04.5"><g class="bn"><title>04.5 · Track &amp; approve time (Sub-process) — 3 processes: 04.5.1, 04.5.2, 04.5.3</title><rect x="1218.0" y="24.0" width="162" height="74" rx="8" class="ground" stroke="currentColor" stroke-width="2.2"/><rect x="1293.0" y="84.0" width="12" height="12" fill="none" stroke="currentColor" stroke-width="1.2"/><path d="M1296.0 90.0h6M1299.0 87.0v6" stroke="currentColor" stroke-width="1.2"/><text x="1373.0" y="37.0" text-anchor="end" font-size="9.5" fill="currentColor" fill-opacity=".6" font-family="monospace">04.5</text><text x="1299.0" y="74.0" text-anchor="middle" font-size="10.5" fill="currentColor"><tspan x="1299.0" dy="0">Track &amp; approve time</tspan></text></g></a><g class="bn"><title> (End event)</title><circle cx="1507.0" cy="61.0" r="18" class="ground" stroke="currentColor" stroke-width="3"/><text x="1507.0" y="92.0" text-anchor="middle" font-size="10.5" fill="currentColor"></text></g></svg>